<svg width="64" height="64" viewBox="0 0 64 64" fill="none" xmlns="http://www.w3.org/2000/svg">
  <rect width="64" height="64" rx="12" fill="#007AFF"/>
  <path d="M16 24C16 19.5817 19.5817 16 24 16H40C44.4183 16 48 19.5817 48 24V40C48 44.4183 44.4183 48 40 48H24C19.5817 48 16 44.4183 16 40V24Z" fill="white"/>
  <path d="M24 28C24 25.7909 25.7909 24 28 24H36C38.2091 24 40 25.7909 40 28V36C40 38.2091 38.2091 40 36 40H28C25.7909 40 24 38.2091 24 36V28Z" fill="#007AFF"/>
  <circle cx="32" cy="32" r="3" fill="white"/>
  <path d="M28 44H36" stroke="#007AFF" stroke-width="2" stroke-linecap="round"/>
</svg>
